<svg width="60" height="60" viewBox="0 0 60 60" fill="none" xmlns="http://www.w3.org/2000/svg">
<rect width="60" height="60" rx="30" fill="white"/>
<g clip-path="url(#clip0_0_1)">
<path d="M28.8281 35.2723V31.1707H24.7266C24.0793 31.1707 23.5547 30.6461 23.5547 29.9989C23.5547 29.3518 24.0793 28.827 24.7266 28.827H28.8281V24.7254C28.8281 24.0784 29.3527 23.5535 30 23.5535C30.6473 23.5535 31.1719 24.0784 31.1719 24.7254V28.827H35.2734C35.9207 28.827 36.4453 29.3518 36.4453 29.9989C36.4453 30.6461 35.9207 31.1707 35.2734 31.1707H31.1719V35.2723C31.1719 35.9196 30.6473 36.4442 30 36.4442C29.3527 36.4442 28.8281 35.9196 28.8281 35.2723ZM40.6066 19.3934C37.7735 16.5603 34.0066 15 30 15C25.9934 15 22.2265 16.5603 19.3934 19.3934C16.5603 22.2265 15 25.9934 15 30C15 34.0066 16.5603 37.7735 19.3934 40.6066C22.2265 43.4397 25.9934 45 30 45C32.7429 45 35.4268 44.2525 37.7614 42.8382C38.315 42.5029 38.492 41.7824 38.1567 41.2289C37.8214 40.6753 37.1006 40.4984 36.5472 40.8337C34.5788 42.0259 32.3147 42.6562 30 42.6562C23.0214 42.6562 17.3438 36.9786 17.3438 30C17.3438 23.0214 23.0214 17.3438 30 17.3438C36.9786 17.3438 42.6562 23.0214 42.6562 30C42.6562 32.4955 41.9142 34.9244 40.5103 37.0246C40.1505 37.5625 40.2951 38.2903 40.8332 38.6501C41.3711 39.0097 42.0989 38.8651 42.4587 38.3272C44.1211 35.8404 45 32.9608 45 30C45 25.9934 43.4397 22.2265 40.6066 19.3934Z" fill="#1085A9"/>
</g>
<defs>
<clipPath id="clip0_0_1">
<rect width="30" height="30" fill="white" transform="translate(15 15)"/>
</clipPath>
</defs>
</svg>
