<svg width="60" height="60" viewBox="0 0 60 60" fill="none" xmlns="http://www.w3.org/2000/svg">
<rect width="60" height="60" rx="30" fill="white"/>
<g clip-path="url(#clip0_0_1)">
<path d="M40.3125 20.1168H40.2421V18.6844C40.2421 17.8326 39.8237 17.035 39.123 16.5506C38.4353 16.0752 37.5612 15.9608 36.7757 16.2415L31.8676 17.7138L31.6652 17.1376C31.4111 16.414 30.8539 15.8432 30.1368 15.5715C29.4256 15.302 28.6376 15.3572 27.9714 15.7222L19.517 20.1198C17.0109 20.2099 15 22.2766 15 24.8043V39.9098C15 42.4945 17.1028 44.5973 19.6875 44.5973H40.3125C42.8972 44.5973 45 42.4945 45 39.9098V39.8427C45 39.1955 44.4754 38.6708 43.8281 38.6708C43.1809 38.6708 42.6562 39.1955 42.6562 39.8427V39.9098C42.6562 41.2022 41.6048 42.2536 40.3125 42.2536H19.6875C18.3952 42.2536 17.3438 41.2022 17.3438 39.9098V24.8043C17.3438 23.5119 18.3952 22.4605 19.6875 22.4605H40.3125C41.6048 22.4605 42.6562 23.5119 42.6562 24.8043V25.8064H35.337C32.8334 25.8064 30.7966 27.8433 30.7966 30.3468C30.7966 32.8504 32.8335 34.8872 35.337 34.8872H43.0823C43.2849 35.0546 43.5448 35.1551 43.8281 35.1551C44.4754 35.1551 45 34.6305 45 33.9833V24.8043C45 22.2196 42.8972 20.1168 40.3125 20.1168ZM24.602 20.1168L29.066 17.7948C29.0761 17.7896 29.0861 17.7841 29.096 17.7787C29.1801 17.7318 29.2568 17.7444 29.3065 17.7632C29.3562 17.782 29.4221 17.8235 29.454 17.9143L30.2276 20.1168H24.602ZM32.7117 20.1168L32.6452 19.9275L37.4824 18.4765C37.5084 18.4687 37.5343 18.46 37.5597 18.4504C37.6611 18.412 37.7412 18.4446 37.7904 18.4786C37.8397 18.5126 37.8984 18.576 37.8984 18.6844V20.1168H32.7117ZM33.1404 30.3469C33.1404 29.1356 34.1258 28.1503 35.337 28.1503H42.6562V32.5436H35.337C34.1258 32.5435 33.1404 31.5581 33.1404 30.3469ZM36.5144 31.4327C36.0611 31.6165 35.5257 31.4919 35.2003 31.1265C34.8738 30.7599 34.8137 30.2174 35.0464 29.7864C35.2833 29.3479 35.7948 29.1031 36.2852 29.1941C36.754 29.2812 37.1292 29.6506 37.224 30.1177C37.3347 30.6628 37.0281 31.2243 36.5144 31.4327Z" fill="#1085A9"/>
</g>
<defs>
<clipPath id="clip0_0_1">
<rect width="30" height="30" fill="white" transform="translate(15 15)"/>
</clipPath>
</defs>
</svg>
