<svg width="60" height="60" viewBox="0 0 60 60" fill="none" xmlns="http://www.w3.org/2000/svg">
<rect width="60" height="60" rx="30" fill="white"/>
<g clip-path="url(#clip0_0_1)">
<path d="M21.592 34.9031C21.1617 35.1231 20.6288 35.0534 20.27 34.7294C19.8922 34.3883 19.7794 33.8203 19.9981 33.3606C20.2046 32.9265 20.6684 32.6542 21.1492 32.6927C21.6262 32.7308 22.0377 33.0647 22.1777 33.5209C22.3412 34.0559 22.0893 34.6488 21.592 34.9031ZM26.5177 33.5209C26.378 33.0636 25.9656 32.7324 25.4892 32.6931C24.9987 32.6527 24.5248 32.9384 24.326 33.3867C24.125 33.8397 24.2375 34.3876 24.6029 34.7229C24.9619 35.0524 25.4981 35.1237 25.9318 34.903C26.4289 34.65 26.6817 34.0547 26.5177 33.5209ZM40.9046 15.8789H28.3017C26.0436 15.8789 24.2064 17.7161 24.2064 19.9743V21.4255C24.2064 22.0727 24.731 22.5974 25.3782 22.5974C26.0255 22.5974 26.5501 22.0727 26.5501 21.4255V19.9743C26.5501 19.0085 27.3359 18.2227 28.3017 18.2227H40.9046C41.8705 18.2227 42.6562 19.0085 42.6562 19.9743V29.1162C42.6562 30.082 41.8705 30.8678 40.9046 30.8678H39.6235C39.0773 30.8678 38.6036 31.2451 38.4814 31.7774L38.1671 33.1461C38.0222 33.7769 38.4161 34.4057 39.0469 34.5505C39.1352 34.5708 39.2234 34.5805 39.3103 34.5805C39.8442 34.5805 40.3268 34.2132 40.4514 33.6707L40.5568 33.2116H40.9048C43.1629 33.2116 45.0001 31.3744 45.0001 29.1162V19.9743C45 17.7161 43.1629 15.8789 40.9046 15.8789ZM30.8572 33.5209C30.717 33.0642 30.3073 32.7335 29.831 32.6933C29.3518 32.6528 28.8815 32.9254 28.6779 33.3605C28.4679 33.8095 28.5637 34.3576 28.9215 34.7032C29.2788 35.0484 29.8295 35.1291 30.2715 34.9031C30.7688 34.6488 31.0206 34.0559 30.8572 33.5209ZM31.6982 24.9411H19.0954C16.8371 24.9411 15 26.7783 15 29.0364V38.1784C15 40.4366 16.8371 42.2737 19.0954 42.2737H19.4433L19.6587 43.2115C19.7471 43.5966 20.0237 43.9113 20.3944 44.0483C20.5264 44.0971 20.664 44.121 20.8007 44.121C21.0482 44.121 21.293 44.0427 21.4976 43.8914L23.6851 42.2737H31.6984C33.9565 42.2737 35.7938 40.4366 35.7938 38.1784V38.0892C35.7938 37.442 35.2691 36.9173 34.6219 36.9173C33.9746 36.9173 33.45 37.442 33.45 38.0892V38.1784C33.45 39.1443 32.6643 39.93 31.6984 39.93H23.2987C23.0479 39.93 22.8037 40.0105 22.602 40.1596L21.5424 40.9432L21.5186 40.8396C21.3964 40.3073 20.9227 39.93 20.3765 39.93H19.0954C18.1295 39.93 17.3438 39.1443 17.3438 38.1784V29.0364C17.3438 28.0706 18.1295 27.2848 19.0954 27.2848H31.6983C32.6641 27.2848 33.4499 28.0706 33.4499 29.0364V32.2298C33.4499 32.8771 33.9745 33.4017 34.6218 33.4017C35.269 33.4017 35.7936 32.8771 35.7936 32.2298V29.0364C35.7936 26.7783 33.9564 24.9411 31.6982 24.9411Z" fill="#1085A9"/>
</g>
<defs>
<clipPath id="clip0_0_1">
<rect width="30" height="30" fill="white" transform="translate(15 15)"/>
</clipPath>
</defs>
</svg>
