<svg width="60" height="60" viewBox="0 0 60 60" fill="none" xmlns="http://www.w3.org/2000/svg">
<rect width="60" height="60" rx="30" fill="white"/>
<g clip-path="url(#clip0_0_1)">
<path d="M25.6012 32.5614L21.1481 33.6935C20.4074 33.8818 19.6875 33.322 19.6875 32.5577C19.6875 32.0217 20.0512 31.554 20.5707 31.4219L25.0238 30.2898C25.7645 30.1014 26.4844 30.6612 26.4844 31.4256C26.4844 31.9615 26.1207 32.4292 25.6012 32.5614ZM26.4844 22.0506C26.4844 21.2862 25.7645 20.7265 25.0237 20.9148L20.5706 22.047C20.0512 22.179 19.6875 22.6467 19.6875 23.1827C19.6875 23.947 20.4074 24.5068 21.1482 24.3185L25.6012 23.1863C26.1207 23.0542 26.4844 22.5865 26.4844 22.0506V22.0506ZM26.4844 26.7381C26.4844 25.9737 25.7645 25.414 25.0237 25.6023L20.5706 26.7345C20.0512 26.8665 19.6875 27.3342 19.6875 27.8702C19.6875 28.6345 20.4074 29.1943 21.1482 29.006L25.6012 27.8738C26.1207 27.7417 26.4844 27.274 26.4844 26.7381ZM43.8281 36.7963C44.4754 36.7963 45 36.2716 45 35.6244V22.2309C45 20.0849 43.5474 18.2167 41.4674 17.6879L31.7579 15.2194C30.6079 14.927 29.3921 14.927 28.2421 15.2194L18.5325 17.6879C16.4526 18.2168 15 20.0849 15 22.2309V41.4826C15 42.5755 15.4948 43.5871 16.3576 44.258C16.984 44.7451 17.7367 44.9999 18.5075 44.9999C18.7983 44.9999 19.0917 44.9636 19.3819 44.8898L30 42.1903L40.6181 44.8898C41.6773 45.1592 42.7796 44.9288 43.6424 44.258C44.5052 43.5871 45 42.5755 45 41.4826C45 40.8354 44.4754 40.3107 43.8281 40.3107C43.1809 40.3107 42.6562 40.8354 42.6562 41.4826C42.6562 41.847 42.4913 42.1842 42.2037 42.4078C41.9162 42.6314 41.5488 42.7082 41.1956 42.6183L31.1719 40.07V20.8002C31.1719 20.153 30.6472 19.6283 30 19.6283C29.3528 19.6283 28.8281 20.153 28.8281 20.8002V40.0699L18.8044 42.6183C18.4514 42.7082 18.0839 42.6314 17.7963 42.4078C17.5087 42.1842 17.3438 41.847 17.3438 41.4826V22.2309C17.3438 21.1579 18.0701 20.2238 19.11 19.9594L28.8196 17.4909C29.5918 17.2945 30.4082 17.2945 31.1804 17.4909L40.8899 19.9594C41.9299 20.2238 42.6562 21.1579 42.6562 22.2309V35.6244C42.6562 36.2716 43.1809 36.7963 43.8281 36.7963ZM22.9143 35.6026L20.5706 36.2266C20.0512 36.3587 19.6875 36.8264 19.6875 37.3624C19.6875 38.1267 20.4074 38.6865 21.1482 38.4981L23.4919 37.8741C24.0114 37.7421 24.3751 37.2744 24.3751 36.7383C24.375 35.974 23.6551 35.4142 22.9143 35.6026Z" fill="#1085A9"/>
</g>
<defs>
<clipPath id="clip0_0_1">
<rect width="30" height="30" fill="white" transform="translate(15 15)"/>
</clipPath>
</defs>
</svg>
